name analog
datacolumns 19
datarows 56
range 0.34550000000000003 0.373
endheader
time	ground_force_vx	ground_force_vy	ground_force_vz	ground_force_px	ground_force_py	ground_force_pz	l_ground_force_vx	l_ground_force_vy	l_ground_force_vz	l_ground_force_px	l_ground_force_py	l_ground_force_pz	ground_torque_x	ground_torque_y	ground_torque_z	l_ground_torque_x	l_ground_torque_y	l_ground_torque_z
0.34550000000000003	-0.0	-0.0	-0.0	3.152287483215332	10.375240325927734	-361.0314025878906	7.100579738616943	-11.778327941894531	-395.9779052734375	-0.0	-0.0	-0.0	-0.0	-0.0	-0.0	104981.140625	-15370.8271484375	-6504.33154296875
0.34600000000000003	-0.0	-0.0	-0.0	3.163226366043091	9.610777854919434	-361.8328247070313	7.318628311157227	-11.633357048034668	-394.67626953125	-0.0	-0.0	-0.0	-0.0	-0.0	-0.0	104739.671875	-15489.1279296875	-6421.36669921875
0.34650000000000003	-0.0	-0.0	-0.0	3.2237794399261475	9.615445137023926	-362.9547729492188	7.21848726272583	-11.364595413208008	-395.0606994628906	-0.0	-0.0	-0.0	-0.0	-0.0	-0.0	104525.21875	-15693.23828125	-6395.81640625
0.34700000000000003	-0.0	-0.0	-0.0	3.5094799995422363	9.150188446044922	-361.1096801757813	8.052741050720215	-11.334955215454102	-392.9917907714844	-0.0	-0.0	-0.0	-0.0	-0.0	-0.0	104245.3828125	-15684.9501953125	-6196.9365234375
0.34750000000000003	-0.0	-0.0	-0.0	3.9843955039978023	9.365967750549316	-360.31390380859375	8.257420539855957	-11.086832046508787	-392.7175598144531	-0.0	-0.0	-0.0	-0.0	-0.0	-0.0	104077.09375	-15791.603515625	-6096.20849609375
0.34800000000000003	-0.0	-0.0	-0.0	3.781624794006348	9.44276237487793	-360.1461486816406	8.422615051269531	-10.74089241027832	-391.06927490234375	-0.0	-0.0	-0.0	-0.0	-0.0	-0.0	103792.7265625	-15768.4091796875	-5939.439453125
0.34850000000000003	-0.0	-0.0	-0.0	4.158259868621826	9.475149154663086	-358.85986328125	8.757917404174805	-10.711448669433594	-390.2339477539063	-0.0	-0.0	-0.0	-0.0	-0.0	-0.0	103752.1328125	-15677.2119140625	-5960.6669921875
0.34900000000000003	-0.0	-0.0	-0.0	4.421204566955566	9.765058517456056	-361.066650390625	8.8905029296875	-10.61794090270996	-389.6531982421875	-0.0	-0.0	-0.0	-0.0	-0.0	-0.0	103278.5390625	-15774.923828125	-5810.525390625
0.34950000000000003	-0.0	-0.0	-0.0	4.013952255249023	9.468095779418944	-359.6651611328125	9.15452766418457	-10.230469703674316	-390.1201171875	-0.0	-0.0	-0.0	-0.0	-0.0	-0.0	103498.3203125	-15854.0087890625	-5819.26513671875
0.35000000000000003	-0.0	-0.0	-0.0	4.222088813781738	9.304438591003418	-360.5390319824219	9.018560409545898	-10.436299324035645	-390.2378845214844	-0.0	-0.0	-0.0	-0.0	-0.0	-0.0	103389.96875	-16088.18359375	-5820.412109375
0.35050000000000003	-0.0	-0.0	-0.0	4.468392372131348	9.495994567871094	-359.84503173828125	8.913081169128418	-10.19265365600586	-389.4505004882813	-0.0	-0.0	-0.0	-0.0	-0.0	-0.0	103057.7265625	-16238.5654296875	-5861.1708984375
0.35100000000000003	-0.0	-0.0	-0.0	3.9348745346069336	8.970661163330078	-361.8572387695313	8.595451354980469	-10.40305233001709	-389.4663391113281	-0.0	-0.0	-0.0	-0.0	-0.0	-0.0	103598.546875	-16179.3837890625	-5846.69482421875
0.35150000000000003	-0.0	-0.0	-0.0	4.279793739318848	10.3263578414917	-361.32806396484375	8.55966567993164	-10.1156005859375	-388.7525024414063	-0.0	-0.0	-0.0	-0.0	-0.0	-0.0	103629.4765625	-16382.3916015625	-5812.224609375
0.352	-0.0	-0.0	-0.0	3.903562307357788	10.020620346069336	-362.80963134765625	8.768285751342773	-10.382503509521484	-390.0206909179688	-0.0	-0.0	-0.0	-0.0	-0.0	-0.0	103567.21875	-16117.6298828125	-5894.82568359375
0.3525	-0.0	-0.0	-0.0	3.493168830871582	10.581876754760742	-363.3437194824219	8.535914421081543	-10.684602737426758	-389.6898498535156	-0.0	-0.0	-0.0	-0.0	-0.0	-0.0	103758.2265625	-16458.240234375	-5918.14892578125
0.353	-0.0	-0.0	-0.0	3.183518648147583	11.038506507873535	-364.7409057617188	8.693656921386719	-10.966632843017578	-391.0134582519531	-0.0	-0.0	-0.0	-0.0	-0.0	-0.0	103916.65625	-16354.1376953125	-6038.79931640625
0.3535	-0.0	-0.0	-0.0	2.819424629211426	11.079471588134766	-364.7692565917969	8.37259578704834	-11.006624221801758	-390.8601989746094	-0.0	-0.0	-0.0	-0.0	-0.0	-0.0	104083.890625	-16687.31640625	-5936.79931640625
0.354	-0.0	-0.0	-0.0	2.979309320449829	11.185866355895996	-365.71783447265625	8.603652954101562	-10.714193344116213	-392.0304870605469	-0.0	-0.0	-0.0	-0.0	-0.0	-0.0	104092.4765625	-16768.138671875	-6019.9306640625
0.3545	-0.0	-0.0	-0.0	2.624777317047119	11.144222259521484	-367.6814575195313	8.412097930908203	-11.022674560546877	-391.5757141113281	-0.0	-0.0	-0.0	-0.0	-0.0	-0.0	104413.625	-16947.798828125	-6125.8740234375
0.355	-0.0	-0.0	-0.0	2.463621139526367	11.32870864868164	-369.9875793457031	8.268186569213867	-11.004201889038086	-391.4345703125	-0.0	-0.0	-0.0	-0.0	-0.0	-0.0	104593.09375	-16842.80859375	-6027.78515625
0.3555	-0.0	-0.0	-0.0	2.393167495727539	11.259142875671388	-367.4710388183594	8.666979789733887	-10.786620140075684	-392.3494873046875	-0.0	-0.0	-0.0	-0.0	-0.0	-0.0	104557.1171875	-17124.244140625	-6086.51708984375
0.356	-0.0	-0.0	-0.0	2.417764186859131	11.310141563415527	-370.5016479492188	8.431991577148438	-10.576711654663086	-393.3885192871094	-0.0	-0.0	-0.0	-0.0	-0.0	-0.0	104953.828125	-17251.958984375	-5923.60693359375
0.3565	-0.0	-0.0	-0.0	2.575967073440552	11.462101936340332	-370.94476318359375	8.709214210510254	-10.68471622467041	-393.0135498046875	-0.0	-0.0	-0.0	-0.0	-0.0	-0.0	105090.0390625	-17491.25	-6025.00537109375
0.357	-0.0	-0.0	-0.0	2.4441893100738525	11.319561004638672	-374.9365234375	8.453815460205078	-10.448134422302246	-395.170654296875	-0.0	-0.0	-0.0	-0.0	-0.0	-0.0	105291.3984375	-17878.51171875	-6006.7197265625
0.3575	-0.0	-0.0	-0.0	3.0536813735961914	11.45773696899414	-374.8983154296875	8.575966835021973	-10.673917770385742	-395.8320617675781	-0.0	-0.0	-0.0	-0.0	-0.0	-0.0	105596.03125	-17998.40625	-5904.28662109375
0.358	-0.0	-0.0	-0.0	2.774998188018799	11.519798278808594	-377.8853149414063	8.711994171142578	-10.978784561157228	-397.2792663574219	-0.0	-0.0	-0.0	-0.0	-0.0	-0.0	106054.1796875	-18285.70703125	-5944.205078125
0.3585	-0.0	-0.0	-0.0	2.481536388397217	12.17116355895996	-380.4176025390625	8.986246109008789	-10.653436660766602	-399.69732666015625	-0.0	-0.0	-0.0	-0.0	-0.0	-0.0	106487.59375	-18390.58203125	-5921.5087890625
0.359	-0.0	-0.0	-0.0	2.362861394882202	11.40002155303955	-382.41552734375	8.836814880371094	-10.721036911010742	-401.7940673828125	-0.0	-0.0	-0.0	-0.0	-0.0	-0.0	107377.0	-18431.625	-5982.845703125
0.3595	-0.0	-0.0	-0.0	2.6956627368927	12.272685050964355	-388.3839111328125	8.723112106323242	-11.205365180969238	-403.956298828125	-0.0	-0.0	-0.0	-0.0	-0.0	-0.0	108022.1953125	-18989.38671875	-5946.08056640625
0.36	-0.0	-0.0	-0.0	2.786885976791382	12.28287124633789	-392.18988037109375	8.71051025390625	-11.30096435546875	-407.6844482421875	-0.0	-0.0	-0.0	-0.0	-0.0	-0.0	109165.65625	-19201.630859375	-5904.71240234375
0.3605	-0.0	-0.0	-0.0	2.811165571212769	12.363628387451172	-397.9624938964844	8.925909996032715	-11.614301681518556	-412.1488037109375	-0.0	-0.0	-0.0	-0.0	-0.0	-0.0	110312.3828125	-19706.609375	-5922.70751953125
0.361	-0.0	-0.0	-0.0	3.253667116165161	12.737236976623535	-400.28619384765625	9.314632415771484	-11.978665351867676	-417.45452880859375	-0.0	-0.0	-0.0	-0.0	-0.0	-0.0	111484.34375	-19860.978515625	-5902.33984375
0.3615	-0.0	-0.0	-0.0	4.031979560852051	13.245549201965332	-408.1738586425781	10.37081813812256	-12.072429656982422	-422.321044921875	-0.0	-0.0	-0.0	-0.0	-0.0	-0.0	113293.0078125	-20480.125	-5779.30419921875
0.362	-0.0	-0.0	-0.0	4.675241947174072	13.305301666259766	-413.2370910644531	10.77903652191162	-12.541633605957031	-428.0438232421875	-0.0	-0.0	-0.0	-0.0	-0.0	-0.0	114670.8046875	-21176.05078125	-5647.88623046875
0.3625	-0.0	-0.0	-0.0	5.435674667358398	13.673967361450195	-419.81689453125	11.464202880859377	-12.644200325012209	-432.5518798828125	-0.0	-0.0	-0.0	-0.0	-0.0	-0.0	116292.453125	-21667.169921875	-5481.55419921875
0.363	-0.0	-0.0	-0.0	6.04991626739502	13.880745887756348	-426.7712097167969	12.661372184753418	-12.862748146057127	-438.3445129394531	-0.0	-0.0	-0.0	-0.0	-0.0	-0.0	118011.421875	-22378.220703125	-5339.2001953125
0.3635	-0.0	-0.0	-0.0	6.485933303833008	14.86644172668457	-432.0674743652344	13.746052742004396	-13.091571807861328	-444.7551879882813	-0.0	-0.0	-0.0	-0.0	-0.0	-0.0	119818.5859375	-23142.80078125	-5097.12744140625
0.364	-0.0	-0.0	-0.0	7.035181045532227	14.92087173461914	-437.332763671875	15.20600128173828	-13.364131927490234	-451.4968566894531	-0.0	-0.0	-0.0	-0.0	-0.0	-0.0	121537.796875	-23870.591796875	-4961.568359375
0.3645	-0.0	-0.0	-0.0	8.253974914550781	14.975621223449709	-443.1751708984375	16.713624954223633	-13.93864631652832	-458.5275268554688	-0.0	-0.0	-0.0	-0.0	-0.0	-0.0	123242.9453125	-24691.1875	-4510.291015625
0.365	-0.0	-0.0	-0.0	9.708064079284668	15.191837310791016	-448.3739929199219	18.895397186279297	-14.645801544189451	-465.5424499511719	-0.0	-0.0	-0.0	-0.0	-0.0	-0.0	125307.5546875	-25330.96484375	-3930.360107421875
0.3655	-0.0	-0.0	-0.0	11.275811195373535	15.119958877563477	-456.6069946289063	20.62446975708008	-14.746967315673828	-470.1217651367188	-0.0	-0.0	-0.0	-0.0	-0.0	-0.0	126777.53125	-26104.53125	-3462.88037109375
0.366	-0.0	-0.0	-0.0	12.813446044921877	15.565006256103516	-461.27734375	22.51702880859375	-15.118392944335938	-475.1574096679688	-0.0	-0.0	-0.0	-0.0	-0.0	-0.0	128133.5078125	-26703.56640625	-2915.550537109375
0.3665	-0.0	-0.0	-0.0	14.070969581604004	15.474716186523438	-466.4630432128906	24.93902969360352	-15.616561889648438	-480.5803833007813	-0.0	-0.0	-0.0	-0.0	-0.0	-0.0	129649.3828125	-27438.423828125	-2254.605712890625
0.367	-0.0	-0.0	-0.0	16.065614700317383	15.954341888427734	-475.9168395996094	27.611900329589844	-15.882739067077637	-485.4106750488281	-0.0	-0.0	-0.0	-0.0	-0.0	-0.0	131288.609375	-28323.5625	-1721.8419189453125
0.3675	-0.0	-0.0	-0.0	17.90521240234375	16.643232345581055	-478.9677734375	29.583646774291992	-16.102201461791992	-491.1204528808594	-0.0	-0.0	-0.0	-0.0	-0.0	-0.0	132587.796875	-29049.3203125	-972.8585205078124
0.368	-0.0	-0.0	-0.0	19.97271728515625	17.138614654541016	-484.8709716796875	32.19081497192383	-16.531169891357422	-496.8876953125	-0.0	-0.0	-0.0	-0.0	-0.0	-0.0	134110.671875	-29984.421875	-190.165771484375
0.3685	-0.0	-0.0	-0.0	22.230091094970703	17.350061416625977	-489.9637451171875	34.94850158691406	-16.87127685546875	-502.6325073242188	-0.0	-0.0	-0.0	-0.0	-0.0	-0.0	135512.921875	-30627.875	576.11328125
0.369	-0.0	-0.0	-0.0	24.466068267822266	17.5068416595459	-496.1882934570313	37.6652946472168	-17.20075035095215	-507.375244140625	-0.0	-0.0	-0.0	-0.0	-0.0	-0.0	137048.71875	-31440.89453125	1233.5850830078125
0.3695	-0.0	-0.0	-0.0	26.14801406860352	18.332971572875977	-501.3825988769531	40.31854248046875	-17.642488479614258	-510.9976806640625	-0.0	-0.0	-0.0	-0.0	-0.0	-0.0	138098.546875	-32068.74609375	2229.700927734375
0.37	-0.0	-0.0	-0.0	27.53242874145508	18.52023124694824	-505.5313720703125	43.10986328125	-17.922107696533203	-512.7719116210938	-0.0	-0.0	-0.0	-0.0	-0.0	-0.0	139078.265625	-32665.345703125	2942.8701171875
0.3705	-0.0	-0.0	-0.0	28.88378524780273	19.221370697021484	-509.7919006347656	44.758113861083984	-17.759075164794922	-515.7913818359375	-0.0	-0.0	-0.0	-0.0	-0.0	-0.0	139795.3125	-33317.74609375	3583.198974609375
0.371	-0.0	-0.0	-0.0	30.30031394958496	19.488325119018555	-515.7573852539062	46.381465911865234	-17.530345916748047	-518.8112182617188	-0.0	-0.0	-0.0	-0.0	-0.0	-0.0	140254.359375	-33447.203125	3978.626220703125
0.3715	-0.0	-0.0	-0.0	33.03376007080078	20.328826904296875	-519.671875	47.370643615722656	-17.45585060119629	-519.363037109375	-0.0	-0.0	-0.0	-0.0	-0.0	-0.0	140818.921875	-33894.86328125	4496.6337890625
0.372	-0.0	-0.0	-0.0	34.67249298095703	20.768966674804688	-520.735595703125	48.480350494384766	-17.111093521118164	-519.606201171875	-0.0	-0.0	-0.0	-0.0	-0.0	-0.0	141153.0625	-34133.50390625	4789.24951171875
0.3725	-0.0	-0.0	-0.0	36.274051666259766	21.987680435180664	-524.42578125	49.29448699951172	-16.623523712158203	-521.0148315429688	-0.0	-0.0	-0.0	-0.0	-0.0	-0.0	141327.671875	-34370.98046875	5177.10986328125
0.373	-0.0	-0.0	-0.0	37.3388786315918	22.310510635375977	-526.3977661132812	50.40837097167969	-16.75371551513672	-520.6663208007812	-0.0	-0.0	-0.0	-0.0	-0.0	-0.0	141694.71875	-34319.62890625	5848.0478515625
